<?xml version="1.0" encoding="utf-8"?>
<svg version="1.1" id="BHS" xmlns="http://www.w3.org/2000/svg" xmlns:xlink="http://www.w3.org/1999/xlink" x="0px" y="0px"
	 viewBox="0 0 512 512" enable-background="new 0 0 512 512" xml:space="preserve">
<circle display="none" fill="#0489F8" cx="256" cy="256" r="256"/>
<path fill="#000000" d="M466.97,191.501c6.154-0.132,7.097-2.352,5.243-7.619c-14.276-40.546-37.414-74.93-70.589-102.474
	c-6.175-5.127-8.45-2.874-10.999,3.697c-11.298,29.134-10.07,57.444,2.848,85.912c6.647,14.647,14.903,20.669,32.61,20.676
	C430.714,191.694,457.976,191.694,466.97,191.501z"/>
<path fill="#000000" d="M382.708,190.117c-5.773-7.315-11.822-13.197-15.745-20.26c-17.044-30.689-26.481-63.355-24.185-98.923
	c1.729-26.78,1.729-26.78-27.379-34.179c-7.144-1.816-10.185-0.538-10.333,7.666c-1.023,56.483,18.284,104.157,60.376,142.299
	C370.07,190.915,374.901,192.762,382.708,190.117z"/>
<path fill="#000000" d="M338.065,189.765c-8.815-4.515-58.316-47.343-75.411-76.96c-13.037-22.586-21.32-46.828-24.473-72.663
	c-1.032-8.455-4.016-10.42-12.426-8.972c-17.6,3.03-34.74,7.209-51.476,13.516c-7.487,2.821-8.957,5.875-5.55,13.304
	c26.043,56.778,67.743,97.78,124.288,123.697C306.627,187.925,320.387,195.697,338.065,189.765z"/>
<path fill="#000000" d="M366.915,409.726c0.683,10.383,1.156,19.432,1.926,28.455c0.346,4.05,1.175,8.822,5.061,10.418
	c4.46,1.831,8.243-0.89,12.215-3.752c3.498-2.521,6.642-5.054,9.835-7.671c30.891-25.31,54.977-55.981,70.65-93.002
	c3.471-8.198,0.483-9.746-7.148-9.558c-16.725-0.015-32.913-0.015-49.929,0.168c-6.721-0.152-11.4,2.148-15.718,7.02
	C376.259,361.611,367.628,384.775,366.915,409.726z"/>
<path fill="#000000" d="M289.062,474.827c-1.02,4.889,2.727,6.646,9.426,5.063c7.363-1.74,14.692-3.657,22.112-5.114
	c5.693-1.118,6.883-4.375,6.518-9.693c-3.108-45.263,13.051-84.232,39.577-119.729c1.156-1.546,2.823-3.158,1.65-4.951
	c-1.709-2.614-3.328-0.614-5.27,0.586c-5.955,3.678-10.964,8.569-16.342,13.172C302.651,395.012,294.443,425.868,289.062,474.827z"
	/>
<path fill="#000000" d="M336.263,339.218c-6.098-0.214-9.14-0.559-11.675,0.128c-22.94,6.207-45.715,11.816-66.746,24.583
	c-38.619,23.444-70.087,53.201-93.279,91.883c-3.076,5.13-2.301,7.903,3.4,10.096c14.851,5.711,29.949,10.433,45.484,13.963
	c8.346,1.897,11.77-0.499,14.063-8.924c10.907-40.078,32.143-73.808,63.551-101.232
	C304.051,358.371,318.981,349.999,336.263,339.218z"/>
<text transform="matrix(1 0 0 1 0 304.332)" fill="#000000" font-family="Arial" font-style="italic" font-weight="bold" font-size="120px">Museum</text>
</svg>